<svg width="550" height="330" viewBox="0 0 550 330" fill="none" xmlns="http://www.w3.org/2000/svg">
<g clip-path="url(#clip0_308_639)">
<path d="M452.352 37.7134C389.154 -11.0002 301.231 -12.9907 237.087 34.4727C203.179 59.5636 176.891 97.9504 181.674 156.399C183.365 177.073 188.069 194.033 194.933 207.917C222.734 264.202 336.92 262.034 343.262 262.026C347.37 262.022 351.479 262.114 355.587 262.302C369.978 262.962 384.293 264.772 398.395 267.714C418.502 271.905 444.098 274.01 466.969 266.073C470.854 264.731 474.63 263.089 478.262 261.163C490.83 254.484 504.899 248.101 513.124 232.259C519.305 220.37 523.809 205.462 525.976 186.893C533.864 119.27 494.449 70.1617 452.352 37.7134Z" fill="#F2F2F2"/>
<path d="M355.863 280.075C455.67 280.075 536.579 272.48 536.579 263.111C536.579 253.742 455.67 246.147 355.863 246.147C256.057 246.147 175.147 253.742 175.147 263.111C175.147 272.48 256.057 280.075 355.863 280.075Z" fill="#3F3D56"/>
<path opacity="0.1" d="M347.035 271.073C439.863 271.073 515.115 267.508 515.115 263.111C515.115 258.713 439.863 255.148 347.035 255.148C254.208 255.148 178.956 258.713 178.956 263.111C178.956 267.508 254.208 271.073 347.035 271.073Z" fill="black"/>
<path d="M440.019 35.9199V54.9515H415.242V262.505H466.951V62.8518V54.9515V35.9199H440.019Z" fill="#575A89"/>
<path d="M303.565 163.755V131.079H271.965V163.755H260.116V262.864H315.056V163.755H303.565Z" fill="#575A89"/>
<path d="M308.952 216.901H266.22V263.223H308.952V216.901Z" fill="#3F3D56"/>
<path opacity="0.1" d="M273.043 216.901H266.22V263.223H273.043V216.901Z" fill="black"/>
<path d="M396.929 25.5062V36.6379H333.729V25.5062H315.056V263.223H415.242V25.5062H396.929Z" fill="#3F3D56"/>
<path opacity="0.1" d="M410.933 25.5063H396.928V36.6381H410.933V25.5063Z" fill="black"/>
<path opacity="0.1" d="M329.061 25.5063H315.056V263.223H329.061V25.5063Z" fill="black"/>
<path d="M243.598 93.3741V84.3969H234.261V93.3741H217.384V263.223H260.116V93.3741H243.598Z" fill="#3F3D56"/>
<path opacity="0.1" d="M239.288 84.397H234.261V93.3742H239.288V84.397Z" fill="black"/>
<path opacity="0.1" d="M222.411 93.3741H217.384V263.223H222.411V93.3741Z" fill="black"/>
<path opacity="0.1" d="M410.933 117.074H396.928V263.223H410.933V117.074Z" fill="black"/>
<path opacity="0.1" d="M260.116 93.3741H247.188V124.615H260.116V93.3741Z" fill="black"/>
<path d="M350.606 55.6699H330.497V64.288H350.606V55.6699Z" fill="#FF6584"/>
<path d="M393.337 144.365H373.229V152.983H393.337V144.365Z" fill="#FF6584"/>
<path d="M350.606 206.487H330.497V215.105H350.606V206.487Z" fill="#FF6584"/>
<path d="M248.984 132.156H228.875V140.774H248.984V132.156Z" fill="#FF6584"/>
<path d="M297.82 221.928H277.711V230.546H297.82V221.928Z" fill="#FF6584"/>
<path opacity="0.1" d="M305.002 171.297H270.529V185.66H305.002V171.297Z" fill="black"/>
<path opacity="0.1" d="M455.819 71.4697H421.347V85.8333H455.819V71.4697Z" fill="black"/>
<path opacity="0.1" d="M455.819 101.992H421.347V116.356H455.819V101.992Z" fill="black"/>
<path opacity="0.1" d="M455.819 132.515H421.347V146.878H455.819V132.515Z" fill="black"/>
<path opacity="0.1" d="M455.819 163.037H421.347V177.401H455.819V163.037Z" fill="black"/>
<path opacity="0.1" d="M455.819 193.56H421.347V207.924H455.819V193.56Z" fill="black"/>
<path opacity="0.1" d="M455.819 224.083H421.347V238.446H455.819V224.083Z" fill="black"/>
<path d="M478.801 136.465V97.324H453.664V136.465H444.687V263.223H487.419V136.465H478.801Z" fill="#3F3D56"/>
<path opacity="0.1" d="M461.564 97.3242H453.665V136.465H461.564V97.3242Z" fill="black"/>
<path opacity="0.1" d="M452.587 136.465H444.687V263.223H452.587V136.465Z" fill="black"/>
<path opacity="0.1" d="M487.419 200.024H466.232V212.592H487.419V200.024Z" fill="black"/>
<path d="M487.06 181.351H466.951V189.969H487.06V181.351Z" fill="#FF6584"/>
<path d="M550 190.051C550 222.043 530.982 233.213 507.521 233.213C484.061 233.213 465.042 222.043 465.042 190.051C465.042 158.06 507.521 117.361 507.521 117.361C507.521 117.361 550 158.06 550 190.051Z" fill="#6C63FF"/>
<path d="M505.973 228.32L506.408 201.545L524.514 168.422L506.476 197.345L506.672 185.306L519.15 161.342L506.724 182.121L507.076 160.469L520.438 141.39L507.131 157.064L507.351 117.361L505.97 169.92L506.083 167.752L492.498 146.957L505.865 171.914L504.599 196.096L504.561 195.454L488.9 173.571L504.514 197.722L504.356 200.746L504.327 200.791L504.341 201.039L501.129 262.391H505.42L505.935 230.702L521.511 206.61L505.973 228.32Z" fill="#3F3D56"/>
<path d="M238.673 190.398C238.673 222.389 219.654 233.56 196.194 233.56C172.733 233.56 153.715 222.389 153.715 190.398C153.715 158.406 196.194 117.708 196.194 117.708C196.194 117.708 238.673 158.406 238.673 190.398Z" fill="#6C63FF"/>
<path d="M194.647 228.666L195.082 201.892L213.188 168.768L195.15 197.691L195.346 185.653L207.824 161.688L195.398 182.467V182.467L195.749 160.815L209.111 141.736L195.805 157.41L196.024 117.707L194.643 170.266L194.756 168.098L181.171 147.304L194.539 172.26L193.273 196.442L193.235 195.8L177.574 173.917L193.188 198.068L193.03 201.092L193.001 201.137L193.014 201.386L189.803 262.737H194.093L194.608 231.048L210.184 206.957L194.647 228.666Z" fill="#3F3D56"/>
<path d="M101.38 329.329C157.371 329.329 202.76 323.19 202.76 315.616C202.76 308.042 157.371 301.903 101.38 301.903C45.3895 301.903 0 308.042 0 315.616C0 323.19 45.3895 329.329 101.38 329.329Z" fill="#3F3D56"/>
<path opacity="0.1" d="M101.38 326.348C145.199 326.348 180.721 321.543 180.721 315.616C180.721 309.689 145.199 304.884 101.38 304.884C57.5613 304.884 22.0391 309.689 22.0391 315.616C22.0391 321.543 57.5613 326.348 101.38 326.348Z" fill="black"/>
<path d="M87.0447 120.372C98.9389 120.372 108.581 110.73 108.581 98.8354C108.581 86.9411 98.9389 77.299 87.0447 77.299C75.1505 77.299 65.5083 86.9411 65.5083 98.8354C65.5083 110.73 75.1505 120.372 87.0447 120.372Z" fill="#2F2E41"/>
<path d="M92.9266 118.113C99.5836 118.113 104.98 112.716 104.98 106.059C104.98 99.4024 99.5836 94.0059 92.9266 94.0059C86.2696 94.0059 80.873 99.4024 80.873 106.059C80.873 112.716 86.2696 118.113 92.9266 118.113Z" fill="#FFB9B9"/>
<path d="M86.1849 112.393C86.1849 112.393 89.2493 119.747 84.5505 121.79C79.8517 123.833 81.6903 135.887 81.6903 135.887L100.077 132.005C100.077 132.005 100.077 126.898 96.3998 124.65C92.7224 122.403 101.303 112.393 101.303 112.393H86.1849Z" fill="#FFB9B9"/>
<path d="M80.2603 166.736L80.8729 173.478L108.453 178.177L105.797 165.715L80.2603 166.736Z" fill="#FFB9B9"/>
<path d="M79.8515 220.875L80.873 249.476C80.873 249.476 75.9699 261.121 79.8515 282.573C83.7332 304.024 80.873 309.948 80.873 309.948L94.7652 311.787L93.9481 303.82L90.6793 296.873L92.1094 257.24C92.1094 257.24 98.4426 242.53 98.6469 239.67C98.8512 236.81 98.2383 215.972 98.2383 215.972L79.8515 220.875Z" fill="#FFB9B9"/>
<path opacity="0.1" d="M79.8515 220.875L80.873 249.476C80.873 249.476 75.9699 261.121 79.8515 282.573C83.7332 304.024 80.873 309.948 80.873 309.948L94.7652 311.787L93.9481 303.82L90.6793 296.873L92.1094 257.24C92.1094 257.24 98.4426 242.53 98.6469 239.67C98.8512 236.81 98.2383 215.972 98.2383 215.972L79.8515 220.875Z" fill="black"/>
<path d="M84.1419 300.142C84.1419 300.142 84.1419 297.486 82.9161 297.282C81.6903 297.078 80.0559 296.465 80.0559 297.282C80.0559 298.099 79.8516 303.82 79.443 304.637C79.0344 305.454 78.2172 308.518 78.8301 309.744C78.8301 309.744 76.9914 314.443 78.4215 314.852C79.8516 315.26 88.0235 315.26 88.0235 315.26L88.4321 313.013C88.4321 313.013 106.615 318.733 110.496 313.626C110.496 313.626 112.335 309.948 109.066 309.131C109.066 309.131 101.711 309.336 99.0556 306.271C96.3997 303.207 91.2923 296.056 91.2923 296.056C91.2923 296.056 87.2063 296.669 87.6149 299.325V300.142H84.1419Z" fill="#2F2E41"/>
<path d="M91.0879 221.488C91.0879 221.488 93.1309 235.788 100.281 246.208C100.281 246.208 103.959 254.788 103.346 257.444C102.733 260.1 102.733 274.605 108.862 287.476L114.582 306.271L117.442 313.013L122.345 315.056L130.313 315.669L125.819 306.271L123.571 301.368C123.571 301.368 119.485 292.992 119.485 285.637C119.485 278.282 116.829 260.917 116.829 260.917C116.829 260.917 116.829 221.692 112.539 219.24C108.249 216.789 91.0879 221.488 91.0879 221.488Z" fill="#FFB9B9"/>
<path d="M81.8945 171.435L79.8515 171.026V180.22C79.8515 180.22 79.0343 187.37 77.1957 188.8C75.357 190.23 68.2066 218.423 70.6582 220.058C73.1097 221.692 106.002 230.272 113.969 221.488L108.453 194.725C108.453 194.725 108.862 176.338 108.453 176.338C108.045 176.338 81.8945 171.435 81.8945 171.435Z" fill="#2F2E41"/>
<path d="M101.303 130.167C101.303 130.167 91.088 123.22 80.8731 132.21C80.8731 132.21 77.1958 147.328 76.5829 151.005C75.97 154.682 72.0883 169.8 74.9485 171.23C77.8087 172.66 77.8087 167.757 85.1634 168.779C92.5181 169.8 108.249 169.392 108.249 168.166C108.249 166.94 104.572 157.134 106.002 155.499C107.432 153.865 109.883 146.102 107.432 142.22C104.98 138.338 101.303 130.167 101.303 130.167Z" fill="#6C63FF"/>
<path d="M88.0234 171.435L108.453 181.037C108.453 181.037 116.625 191.456 118.464 185.531C120.302 179.607 112.335 175.316 112.335 175.316L98.6469 167.553L88.0234 171.026L88.0234 171.435Z" fill="#FFB9B9"/>
<path opacity="0.1" d="M89.4534 132.21C89.4534 132.21 77.8085 168.166 88.432 173.886C99.0554 179.607 100.69 168.779 100.69 168.779C100.69 168.779 93.5394 164.284 95.7867 158.768C98.0339 153.252 100.077 132.21 100.077 132.21L89.4534 132.21Z" fill="black"/>
<path d="M88.8407 130.984C88.8407 130.984 77.1957 166.94 87.8192 172.66C98.4426 178.381 100.077 167.553 100.077 167.553C100.077 167.553 92.9266 163.058 95.1739 157.542C97.4212 152.026 99.4642 130.984 99.4642 130.984L88.8407 130.984Z" fill="#6C63FF"/>
<path d="M116.918 304.342C116.918 304.342 116.713 301.56 115.413 301.441C114.114 301.322 112.355 300.806 112.418 301.662C112.481 302.518 112.708 308.525 112.343 309.412C111.979 310.3 111.359 313.573 112.096 314.809C112.096 314.809 110.533 319.872 112.062 320.19C113.592 320.508 122.151 319.877 122.151 319.877L122.405 317.491C122.405 317.491 141.891 322.079 145.562 316.43C145.562 316.43 147.204 312.436 143.717 311.833C143.717 311.833 136.03 312.615 133.011 309.61C129.993 306.605 124.092 299.51 124.092 299.51C124.092 299.51 119.86 300.468 120.492 303.218L120.556 304.074L116.918 304.342Z" fill="#2F2E41"/>
<path d="M92.901 106.014C100.935 106.014 107.448 102.546 107.448 98.2686C107.448 93.9908 100.935 90.523 92.901 90.523C84.8672 90.523 78.3545 93.9908 78.3545 98.2686C78.3545 102.546 84.8672 106.014 92.901 106.014Z" fill="#2F2E41"/>
<path d="M80.8105 111.304C81.9582 111.304 82.8886 109.866 82.8886 108.092C82.8886 106.318 81.9582 104.881 80.8105 104.881C79.6628 104.881 78.7324 106.318 78.7324 108.092C78.7324 109.866 79.6628 111.304 80.8105 111.304Z" fill="#FFB9B9"/>
<path d="M73.8206 87.5004C79.4547 87.5004 84.0221 82.933 84.0221 77.2989C84.0221 71.6648 79.4547 67.0975 73.8206 67.0975C68.1865 67.0975 63.6191 71.6648 63.6191 77.2989C63.6191 82.933 68.1865 87.5004 73.8206 87.5004Z" fill="#2F2E41"/>
</g>
<defs>
<clipPath id="clip0_308_639">
<rect width="550" height="329.329" fill="white"/>
</clipPath>
</defs>
</svg>
