<svg width="30" height="31" viewBox="0 0 30 31" fill="none" xmlns="http://www.w3.org/2000/svg">
<path d="M15 11.656C14.2643 11.656 13.545 11.8814 12.9333 12.3038C12.3215 12.7262 11.8447 13.3266 11.5632 14.029C11.2816 14.7314 11.2079 15.5043 11.3515 16.2499C11.495 16.9956 11.8493 17.6805 12.3696 18.2181C12.8898 18.7557 13.5527 19.1218 14.2743 19.2701C14.9959 19.4185 15.7438 19.3423 16.4236 19.0514C17.1033 18.7605 17.6843 18.2678 18.0931 17.6356C18.5018 17.0035 18.72 16.2603 18.72 15.5C18.72 14.9952 18.6238 14.4953 18.4368 14.029C18.2499 13.5626 17.9759 13.1388 17.6304 12.7819C17.285 12.4249 16.8749 12.1418 16.4236 11.9486C15.9723 11.7554 15.4885 11.656 15 11.656ZM29.895 7.8585C29.8871 6.66152 29.6738 5.47549 29.265 4.3555C28.9639 3.53595 28.4981 2.7917 27.8982 2.17184C27.2984 1.55198 26.5781 1.07061 25.785 0.7595C24.7011 0.337069 23.5534 0.116654 22.395 0.1085C20.46 -1.03936e-07 19.89 0 15 0C10.11 0 9.54 -1.03936e-07 7.605 0.1085C6.44664 0.116654 5.29886 0.337069 4.215 0.7595C3.42189 1.07061 2.70164 1.55198 2.10178 2.17184C1.50192 2.7917 1.03608 3.53595 0.735 4.3555C0.326196 5.47549 0.112891 6.66152 0.105 7.8585C-1.00583e-07 9.858 0 10.447 0 15.5C0 20.553 -1.00583e-07 21.142 0.105 23.1415C0.121146 24.3427 0.334161 25.5324 0.735 26.66C1.03474 27.4758 1.50019 28.2157 2.1 28.83C2.69729 29.4536 3.41908 29.9349 4.215 30.2405C5.29886 30.6629 6.44664 30.8833 7.605 30.8915C9.54 31 10.11 31 15 31C19.89 31 20.46 31 22.395 30.8915C23.5534 30.8833 24.7011 30.6629 25.785 30.2405C26.5809 29.9349 27.3027 29.4536 27.9 28.83C28.4998 28.2157 28.9653 27.4758 29.265 26.66C29.6734 25.5345 29.8867 24.3435 29.895 23.1415C30 21.142 30 20.553 30 15.5C30 10.447 30 9.858 29.895 7.8585ZM26.085 20.2585C26.0369 21.215 25.8393 22.1572 25.5 23.0485C25.2088 23.792 24.7759 24.4674 24.227 25.0346C23.6782 25.6018 23.0245 26.0491 22.305 26.35C21.4343 26.6811 20.5174 26.8643 19.59 26.8925H10.41C9.4826 26.8643 8.56573 26.6811 7.695 26.35C6.95115 26.0644 6.27942 25.6087 5.73 25.017C5.1865 24.4609 4.76677 23.7892 4.5 23.0485C4.17834 22.1497 4.00591 21.2012 3.99 20.243V10.757C4.00591 9.79883 4.17834 8.85032 4.5 7.9515C4.77642 7.18286 5.21741 6.48873 5.79 5.921C6.3305 5.36242 6.9799 4.92914 7.695 4.65C8.56573 4.31893 9.4826 4.13573 10.41 4.1075H19.59C20.5174 4.13573 21.4343 4.31893 22.305 4.65C23.0488 4.93564 23.7206 5.39132 24.27 5.983C24.8135 6.53906 25.2332 7.2108 25.5 7.9515C25.8204 8.85126 25.9977 9.79868 26.025 10.757V15.5C26.025 18.693 26.13 19.0185 26.085 20.243V20.2585ZM23.685 8.7265C23.5064 8.22583 23.2248 7.77115 22.8597 7.39383C22.4945 7.01652 22.0545 6.72555 21.57 6.541C20.9047 6.3027 20.204 6.18728 19.5 6.2H10.5C9.7924 6.20715 9.0916 6.34358 8.43 6.603C7.95289 6.77917 7.51754 7.05825 7.15288 7.42171C6.78821 7.78517 6.50259 8.22467 6.315 8.711C6.09717 9.40132 5.99074 10.124 6 10.85V20.15C6.01487 20.8804 6.14665 21.6031 6.39 22.289C6.5686 22.7897 6.85018 23.2444 7.21532 23.6217C7.58046 23.999 8.02048 24.29 8.505 24.4745C9.145 24.7177 9.81848 24.8538 10.5 24.8775H19.5C20.2076 24.8704 20.9084 24.7339 21.57 24.4745C22.0545 24.29 22.4945 23.999 22.8597 23.6217C23.2248 23.2444 23.5064 22.7897 23.685 22.289C23.9361 21.6053 24.0681 20.8812 24.075 20.15V10.85C24.0754 10.1181 23.9432 9.39257 23.685 8.711V8.7265ZM15 21.421C14.2482 21.421 13.5038 21.2677 12.8095 20.97C12.1151 20.6722 11.4845 20.2359 10.9536 19.6858C10.4227 19.1358 10.002 18.483 9.71572 17.7647C9.42939 17.0464 9.28303 16.2768 9.285 15.5C9.285 14.3283 9.62144 13.1829 10.2517 12.2089C10.882 11.2348 11.7778 10.4759 12.8257 10.0282C13.8736 9.58055 15.0265 9.46421 16.1384 9.69393C17.2503 9.92365 18.2713 10.4891 19.072 11.3187C19.8728 12.1483 20.4173 13.2048 20.6367 14.3544C20.8561 15.504 20.7405 16.695 20.3045 17.7766C19.8685 18.8583 19.1318 19.7819 18.1875 20.4307C17.2432 21.0794 16.1339 21.4241 15 21.421ZM21 10.7415C20.6684 10.7052 20.3615 10.5434 20.1385 10.2873C19.9155 10.0312 19.7921 9.6988 19.7921 9.35425C19.7921 9.0097 19.9155 8.67733 20.1385 8.4212C20.3615 8.16506 20.6684 8.00327 21 7.967C21.3316 8.00327 21.6385 8.16506 21.8615 8.4212C22.0845 8.67733 22.2079 9.0097 22.2079 9.35425C22.2079 9.6988 22.0845 10.0312 21.8615 10.2873C21.6385 10.5434 21.3316 10.7052 21 10.7415Z" fill="black"/>
</svg>
