<svg width="30" height="31" viewBox="0 0 30 31" fill="none" xmlns="http://www.w3.org/2000/svg">
<path d="M4.28571 0C1.92188 0 0 1.98594 0 4.42857V26.5714C0 29.0141 1.92188 31 4.28571 31H25.7143C28.0781 31 30 29.0141 30 26.5714V4.42857C30 1.98594 28.0781 0 25.7143 0H4.28571ZM24.1808 5.8125L17.2299 14.0192L25.4062 25.1875H19.0045L13.9955 18.4132L8.2567 25.1875H5.07589L12.5089 16.4065L4.66741 5.8125H11.2299L15.7634 12.0056L21 5.8125H24.1808ZM21.6496 23.2223L10.2723 7.67388H8.37723L19.8817 23.2223H21.6429H21.6496Z" fill="black"/>
</svg>
